<svg aria-hidden="true" style="position: absolute; width: 0; height: 0; overflow: hidden;" version="1.1" xmlns="http://www.w3.org/2000/svg" xmlns:xlink="http://www.w3.org/1999/xlink">
<defs>
    <symbol id="icon-sun" viewBox="0 0 32 32">
    <path d="M16 26c1.105 0 2 0.895 2 2v2c0 1.105-0.895 2-2 2s-2-0.895-2-2v-2c0-1.105 0.895-2 2-2zM16 6c-1.105 0-2-0.895-2-2v-2c0-1.105 0.895-2 2-2s2 0.895 2 2v2c0 1.105-0.895 2-2 2zM30 14c1.105 0 2 0.895 2 2s-0.895 2-2 2h-2c-1.105 0-2-0.895-2-2s0.895-2 2-2h2zM6 16c0 1.105-0.895 2-2 2h-2c-1.105 0-2-0.895-2-2s0.895-2 2-2h2c1.105 0 2 0.895 2 2zM25.899 23.071l1.414 1.414c0.781 0.781 0.781 2.047 0 2.828s-2.047 0.781-2.828 0l-1.414-1.414c-0.781-0.781-0.781-2.047 0-2.828s2.047-0.781 2.828 0zM6.101 8.929l-1.414-1.414c-0.781-0.781-0.781-2.047 0-2.828s2.047-0.781 2.828 0l1.414 1.414c0.781 0.781 0.781 2.047 0 2.828s-2.047 0.781-2.828 0zM25.899 8.929c-0.781 0.781-2.047 0.781-2.828 0s-0.781-2.047 0-2.828l1.414-1.414c0.781-0.781 2.047-0.781 2.828 0s0.781 2.047 0 2.828l-1.414 1.414zM6.101 23.071c0.781-0.781 2.047-0.781 2.828 0s0.781 2.047 0 2.828l-1.414 1.414c-0.781 0.781-2.047 0.781-2.828 0s-0.781-2.047 0-2.828l1.414-1.414z"></path>
    <path d="M16 8c-4.418 0-8 3.582-8 8s3.582 8 8 8c4.418 0 8-3.582 8-8s-3.582-8-8-8zM16 21c-2.761 0-5-2.239-5-5s2.239-5 5-5 5 2.239 5 5-2.239 5-5 5z"></path>
    </symbol>
    <symbol id="icon-moon" viewBox="0 0 32 32">
    <path style="fill: var(--color1)" d="M20 32c-2.335 0.002-4.641-0.508-6.758-1.492s-3.993-2.42-5.496-4.207-2.597-3.88-3.205-6.134c-0.608-2.254-0.716-4.614-0.315-6.914s1.3-4.484 2.634-6.4 3.072-3.516 5.091-4.689c2.019-1.173 4.27-1.889 6.595-2.1s4.668 0.090 6.865 0.881c0.658 0.236 1.24 0.644 1.687 1.182s0.74 1.185 0.851 1.875c0.111 0.69 0.035 1.397-0.221 2.048s-0.681 1.221-1.232 1.651c-6.8 5.227-6.784 11.385 0 16.595 0.551 0.43 0.976 1.001 1.231 1.651s0.331 1.358 0.22 2.048c-0.111 0.69-0.405 1.338-0.852 1.875s-1.029 0.946-1.687 1.181c-1.736 0.62-3.565 0.94-5.408 0.947zM20 4c-1.744-0.002-3.468 0.376-5.051 1.109s-2.988 1.801-4.116 3.131-1.952 2.891-2.416 4.573c-0.463 1.682-0.554 3.444-0.267 5.165s0.946 3.358 1.931 4.797 2.272 2.647 3.771 3.539c1.499 0.892 3.175 1.446 4.91 1.624s3.488-0.025 5.137-0.593c-8.681-6.753-8.652-15.959 0-22.688-1.257-0.425-2.573-0.647-3.9-0.656z"></path>
    </symbol>
</defs> 
</svg>